<svg width="16" height="14" viewBox="0 0 16 14" fill="none" xmlns="http://www.w3.org/2000/svg">
<path d="M14.9908 6.85889L10.9357 6.85889C9.86598 6.85889 9.13185 6.04785 9.13185 5.05504V2.80372C9.13185 1.81092 9.86598 0.999923 10.9357 0.999923L13.187 0.999923C14.1798 0.999923 14.9908 1.81092 14.9908 2.80372V6.85889" stroke="black" stroke-opacity="0.5" stroke-width="1.5" stroke-linecap="round" stroke-linejoin="round"/>
<path d="M14.9908 6.85885C14.9908 11.0888 14.2007 11.7879 11.8236 13.2002" stroke="black" stroke-opacity="0.5" stroke-width="1.5" stroke-linecap="round" stroke-linejoin="round"/>
<path d="M6.85898 6.85889L2.80386 6.85889C1.73414 6.85889 1.00001 6.04785 1.00001 5.05504L1.00001 2.80372C1.00001 1.81092 1.73414 0.999923 2.80386 0.999923L5.05513 0.999923C6.04794 0.999923 6.85898 1.81092 6.85898 2.80372L6.85898 6.85889" stroke="black" stroke-opacity="0.5" stroke-width="1.5" stroke-linecap="round" stroke-linejoin="round"/>
<path d="M6.85898 6.85885C6.85898 11.0888 6.06895 11.7879 3.69181 13.2002" stroke="black" stroke-opacity="0.5" stroke-width="1.5" stroke-linecap="round" stroke-linejoin="round"/>
</svg>
