<svg width="52" height="94" viewBox="0 0 52 94" fill="none" xmlns="http://www.w3.org/2000/svg">
<rect x="0.25" y="0.25" width="51.5" height="93.5" rx="25.75" stroke="black" stroke-opacity="0.6" stroke-width="0.5"/>
<rect x="13.25" y="16.25" width="25.5" height="61.5" rx="12.75" stroke="black" stroke-opacity="0.6" stroke-width="0.5"/>
<path d="M20.4448 6C20.5568 6 20.6448 6.008 20.7088 6.024V7.176C20.5888 7.152 20.4328 7.14 20.2408 7.14C19.6808 7.14 19.2368 7.42 18.9088 7.98V12H17.8888V6.144H18.8488V7.02C19.0648 6.692 19.3048 6.44 19.5688 6.264C19.8408 6.088 20.1328 6 20.4448 6Z" fill="black"/>
<path d="M29.0019 6C29.7139 6 30.2419 6.192 30.5859 6.576C30.9379 6.952 31.1139 7.488 31.1139 8.184V9.96C31.1139 10.656 30.9379 11.196 30.5859 11.58C30.2419 11.956 29.7139 12.144 29.0019 12.144C28.2899 12.144 27.7579 11.956 27.4059 11.58C27.0619 11.196 26.8899 10.656 26.8899 9.96V8.184C26.8899 7.488 27.0619 6.952 27.4059 6.576C27.7579 6.192 28.2899 6 29.0019 6ZM29.0019 6.852C28.6579 6.852 28.3899 6.96 28.1979 7.176C28.0059 7.392 27.9099 7.7 27.9099 8.1V10.044C27.9099 10.444 28.0059 10.752 28.1979 10.968C28.3899 11.184 28.6579 11.292 29.0019 11.292C29.3459 11.292 29.6139 11.184 29.8059 10.968C29.9979 10.752 30.0939 10.444 30.0939 10.044V8.088C30.0939 7.688 29.9979 7.384 29.8059 7.176C29.6139 6.96 29.3459 6.852 29.0019 6.852Z" fill="black"/>
<path d="M42.0123 10.804V19H40.9923V10.804H42.0123Z" fill="black"/>
<path d="M46.0123 23.804V32H44.9923V23.804H46.0123Z" fill="black"/>
<path d="M12.0185 79H11.0465V78.052C10.5665 78.78 10.0185 79.144 9.40248 79.144C8.90648 79.144 8.52648 78.976 8.26248 78.64C7.99848 78.296 7.86648 77.796 7.86648 77.14V75.004C7.86648 74.372 8.01048 73.88 8.29848 73.528C8.59448 73.176 9.01448 73 9.55848 73C9.79048 73 10.0345 73.06 10.2905 73.18C10.5465 73.292 10.7825 73.432 10.9985 73.6V70.804H12.0185V79ZM9.78648 73.912C9.49848 73.912 9.27448 74.016 9.11448 74.224C8.96248 74.424 8.88648 74.732 8.88648 75.148V77.008C8.88648 77.824 9.13848 78.232 9.64248 78.232C9.88248 78.232 10.1185 78.14 10.3505 77.956C10.5905 77.764 10.8065 77.496 10.9985 77.152V74.512C10.8305 74.336 10.6305 74.192 10.3985 74.08C10.1745 73.968 9.97048 73.912 9.78648 73.912Z" fill="black"/>
<path d="M21.0019 81C21.7139 81 22.2419 81.192 22.5859 81.576C22.9379 81.952 23.1139 82.488 23.1139 83.184V84.96C23.1139 85.656 22.9379 86.196 22.5859 86.58C22.2419 86.956 21.7139 87.144 21.0019 87.144C20.2899 87.144 19.7579 86.956 19.4059 86.58C19.0619 86.196 18.8899 85.656 18.8899 84.96V83.184C18.8899 82.488 19.0619 81.952 19.4059 81.576C19.7579 81.192 20.2899 81 21.0019 81ZM21.0019 81.852C20.6579 81.852 20.3899 81.96 20.1979 82.176C20.0059 82.392 19.9099 82.7 19.9099 83.1V85.044C19.9099 85.444 20.0059 85.752 20.1979 85.968C20.3899 86.184 20.6579 86.292 21.0019 86.292C21.3459 86.292 21.6139 86.184 21.8059 85.968C21.9979 85.752 22.0939 85.444 22.0939 85.044V83.088C22.0939 82.688 21.9979 82.384 21.8059 82.176C21.6139 81.96 21.3459 81.852 21.0019 81.852Z" fill="black"/>
<path d="M37.3296 81.144L35.9736 87H34.6896L33.5016 82.032L32.3016 87H31.0176L29.6736 81.144H30.7536L31.7016 86.1L32.8416 81.144H34.1616L35.2896 86.1L36.2496 81.144H37.3296Z" fill="black"/>
<path d="M44.478 73C44.99 73 45.382 73.176 45.654 73.528C45.934 73.872 46.074 74.364 46.074 75.004V79H45.054V75.148C45.054 74.348 44.794 73.948 44.274 73.948C44.042 73.948 43.806 74.036 43.566 74.212C43.326 74.388 43.118 74.628 42.942 74.932V79H41.922V73.144H42.882V74.02C43.098 73.692 43.338 73.44 43.602 73.264C43.874 73.088 44.166 73 44.478 73Z" fill="black"/>
<path d="M11.0541 13C11.4141 13 11.8221 13.052 12.2781 13.156L12.2541 14.056C11.7901 13.952 11.3901 13.9 11.0541 13.9C10.6781 13.9 10.3901 14.004 10.1901 14.212C9.99811 14.42 9.90211 14.716 9.90211 15.1V17.032C9.90211 17.432 10.0021 17.736 10.2021 17.944C10.4101 18.144 10.6941 18.244 11.0541 18.244C11.2781 18.244 11.4741 18.232 11.6421 18.208C11.8101 18.184 12.0141 18.144 12.2541 18.088L12.2781 18.988C11.7901 19.092 11.3781 19.144 11.0421 19.144C9.60211 19.144 8.88211 18.416 8.88211 16.96V15.184C8.88211 13.728 9.60611 13 11.0541 13Z" fill="black"/>
<path d="M6.72898 26C7.06498 26 7.46898 26.048 7.94098 26.144L7.91698 27.008C7.50098 26.912 7.12098 26.864 6.77698 26.864C6.05698 26.864 5.69698 27.096 5.69698 27.56V27.668C5.69698 27.812 5.73298 27.928 5.80498 28.016C5.88498 28.104 6.02498 28.196 6.22498 28.292L7.35298 28.82C8.03298 29.14 8.37298 29.608 8.37298 30.224V30.488C8.36498 31.04 8.19698 31.456 7.86898 31.736C7.54898 32.008 7.04098 32.144 6.34498 32.144C5.98498 32.144 5.46898 32.06 4.79698 31.892L4.84498 30.98C5.44498 31.156 5.93698 31.244 6.32098 31.244C6.71298 31.244 6.98498 31.192 7.13698 31.088C7.28898 30.976 7.36498 30.796 7.36498 30.548V30.428C7.36498 30.236 7.32498 30.084 7.24498 29.972C7.17298 29.86 7.04898 29.764 6.87298 29.684L5.70898 29.168C5.35698 29.008 5.09698 28.816 4.92898 28.592C4.76898 28.368 4.68898 28.108 4.68898 27.812V27.644C4.70498 27.1 4.87298 26.692 5.19298 26.42C5.52098 26.14 6.03298 26 6.72898 26Z" fill="black"/>
<path d="M25.2929 65.7071C25.6834 66.0976 26.3166 66.0976 26.7071 65.7071L33.0711 59.3431C33.4616 58.9526 33.4616 58.3195 33.0711 57.9289C32.6805 57.5384 32.0474 57.5384 31.6569 57.9289L26 63.5858L20.3431 57.9289C19.9526 57.5384 19.3195 57.5384 18.9289 57.9289C18.5384 58.3195 18.5384 58.9526 18.9289 59.3431L25.2929 65.7071ZM25 33L25 65L27 65L27 33L25 33Z" fill="black" fill-opacity="0.5"/>
</svg>
