<svg width="34" height="34" viewBox="0 0 34 34" fill="none" xmlns="http://www.w3.org/2000/svg">
<circle cx="17" cy="17" r="17" fill="black" fill-opacity="0.18"/>
<path d="M20.7086 9.6698L18.8571 9.66675C16.777 9.66675 15.4328 11.0835 15.4328 13.2762V14.9404H13.5712C13.4103 14.9404 13.28 15.0744 13.28 15.2397V17.6509C13.28 17.8162 13.4104 17.95 13.5712 17.95H15.4328V24.0344C15.4328 24.1996 15.563 24.3334 15.7239 24.3334H18.1528C18.3136 24.3334 18.4439 24.1994 18.4439 24.0344V17.95H20.6206C20.7814 17.95 20.9117 17.8162 20.9117 17.6509L20.9126 15.2397C20.9126 15.1603 20.8818 15.0843 20.8273 15.0282C20.7728 14.972 20.6985 14.9404 20.6213 14.9404H18.4439V13.5297C18.4439 12.8516 18.6012 12.5074 19.4611 12.5074L20.7083 12.5069C20.8691 12.5069 20.9993 12.3729 20.9993 12.2079V9.96886C20.9993 9.80392 20.8692 9.6701 20.7086 9.6698Z" fill="white"/>
</svg>
