<svg width="16" height="14" viewBox="0 0 16 14" fill="none" xmlns="http://www.w3.org/2000/svg">
<path d="M1 7.34131H5.05512C6.12483 7.34131 6.85896 8.15235 6.85896 9.14515V11.3965C6.85896 12.3893 6.12483 13.2003 5.05512 13.2003H2.80384C1.81104 13.2003 1 12.3893 1 11.3965V7.34131" stroke="black" stroke-opacity="0.5" stroke-width="1.5" stroke-linecap="round" stroke-linejoin="round"/>
<path d="M1 7.34134C1 3.11143 1.79007 2.4123 4.16722 1" stroke="black" stroke-opacity="0.5" stroke-width="1.5" stroke-linecap="round" stroke-linejoin="round"/>
<path d="M9.13184 7.34131H13.187C14.2567 7.34131 14.9908 8.15235 14.9908 9.14515V11.3965C14.9908 12.3893 14.2567 13.2003 13.187 13.2003H10.9357C9.94287 13.2003 9.13184 12.3893 9.13184 11.3965V7.34131" stroke="black" stroke-opacity="0.5" stroke-width="1.5" stroke-linecap="round" stroke-linejoin="round"/>
<path d="M9.13184 7.34134C9.13184 3.11143 9.92186 2.4123 12.299 1" stroke="black" stroke-opacity="0.5" stroke-width="1.5" stroke-linecap="round" stroke-linejoin="round"/>
</svg>
