<svg width="22" height="22" viewBox="0 0 22 22" fill="none" xmlns="http://www.w3.org/2000/svg">
<path d="M13.7993 16.9073H5.71999C4.96896 16.9073 4.24827 16.5651 3.73999 15.9703C3.23172 15.3755 2.97379 14.577 3.03448 13.7703L3.66414 5.65474C3.68689 5.40215 3.60344 5.15771 3.44413 4.9703C3.28482 4.7829 3.06482 4.68511 2.82965 4.68511H1.51724C1.2062 4.68511 0.948273 4.40808 0.948273 4.074C0.948273 3.73993 1.2062 3.46289 1.51724 3.46289H2.83724C3.39104 3.46289 3.91447 3.71548 4.2862 4.14733C4.49103 4.39178 4.64275 4.67697 4.7262 4.99475H14.2014C14.9676 4.99475 15.6731 5.32067 16.189 5.90733C16.6972 6.50215 16.9552 7.27623 16.8945 8.09919L16.4848 14.2103C16.4014 15.7014 15.1876 16.9073 13.7993 16.9073ZM4.76413 6.20881L4.17241 13.8681C4.13448 14.3407 4.27862 14.7888 4.57448 15.1392C4.87034 15.4895 5.27999 15.677 5.71999 15.677H13.7993C14.5883 15.677 15.3014 14.9599 15.3621 14.1125L15.7717 8.00141C15.8021 7.52067 15.6579 7.06438 15.3621 6.73031C15.0662 6.38808 14.6565 6.20066 14.209 6.20066H4.76413V6.20881Z" fill="#292D32"/>
<path d="M12.3276 20.9814C11.4931 20.9814 10.8103 20.2481 10.8103 19.3518C10.8103 18.4555 11.4931 17.7222 12.3276 17.7222C13.1621 17.7222 13.8448 18.4555 13.8448 19.3518C13.8448 20.2481 13.1621 20.9814 12.3276 20.9814ZM12.3276 18.9444C12.1152 18.9444 11.9483 19.1236 11.9483 19.3518C11.9483 19.5799 12.1152 19.7592 12.3276 19.7592C12.54 19.7592 12.7069 19.5799 12.7069 19.3518C12.7069 19.1236 12.54 18.9444 12.3276 18.9444Z" fill="#292D32"/>
<path d="M6.25864 20.9814C5.42415 20.9814 4.74139 20.2481 4.74139 19.3518C4.74139 18.4555 5.42415 17.7222 6.25864 17.7222C7.09312 17.7222 7.77588 18.4555 7.77588 19.3518C7.77588 20.2481 7.09312 20.9814 6.25864 20.9814ZM6.25864 18.9444C6.04622 18.9444 5.87933 19.1236 5.87933 19.3518C5.87933 19.5799 6.04622 19.7592 6.25864 19.7592C6.47105 19.7592 6.63795 19.5799 6.63795 19.3518C6.63795 19.1236 6.47105 18.9444 6.25864 18.9444Z" fill="#292D32"/>
<path d="M15.931 9.57403H6.82757C6.51654 9.57403 6.25861 9.29699 6.25861 8.96292C6.25861 8.62884 6.51654 8.35181 6.82757 8.35181H15.931C16.2421 8.35181 16.5 8.62884 16.5 8.96292C16.5 9.29699 16.2421 9.57403 15.931 9.57403Z" fill="#292D32"/>
<ellipse cx="16.6896" cy="5.7037" rx="5.31034" ry="5.7037" fill="#FF7D43"/>
<path d="M17.4477 2.21564V10.6296H16.2577V3.36364H16.2297L14.3677 4.16164L14.1297 3.13964L16.3977 2.21564H17.4477Z" fill="white"/>
</svg>
