<svg width="34" height="34" viewBox="0 0 34 34" fill="none" xmlns="http://www.w3.org/2000/svg">
<circle cx="17" cy="17" r="17" fill="black" fill-opacity="0.18"/>
<path fill-rule="evenodd" clip-rule="evenodd" d="M10.3333 16.6332C10.3333 14.0084 10.3333 12.696 11.0018 11.776C11.2177 11.4789 11.479 11.2176 11.7761 11.0017C12.6961 10.3333 14.0085 10.3333 16.6333 10.3333H17.3667C19.9915 10.3333 21.3039 10.3333 22.2239 11.0017C22.5211 11.2176 22.7824 11.4789 22.9982 11.776C23.6667 12.696 23.6667 14.0084 23.6667 16.6333V17.3666C23.6667 19.9914 23.6667 21.3038 22.9982 22.2238C22.7824 22.521 22.5211 22.7823 22.2239 22.9981C21.3039 23.6666 19.9915 23.6666 17.3667 23.6666H16.6333C14.0085 23.6666 12.6961 23.6666 11.7761 22.9981C11.479 22.7823 11.2177 22.521 11.0018 22.2238C10.3333 21.3038 10.3333 19.9914 10.3333 17.3666V16.6332ZM17.0001 13.4705C15.051 13.4705 13.4707 15.0508 13.4707 17C13.4707 18.9491 15.051 20.5294 17.0001 20.5294C18.9492 20.5294 20.5295 18.9491 20.5295 17C20.5295 15.0508 18.9492 13.4705 17.0001 13.4705ZM17.0001 19.2058C15.7842 19.2058 14.7942 18.2158 14.7942 17C14.7942 15.7832 15.7842 14.7941 17.0001 14.7941C18.216 14.7941 19.206 15.7832 19.206 17C19.206 18.2158 18.216 19.2058 17.0001 19.2058ZM21.2642 13.2058C21.2642 13.4655 21.0536 13.6761 20.7939 13.6761C20.5341 13.6761 20.3236 13.4655 20.3236 13.2058C20.3236 12.9461 20.5341 12.7355 20.7939 12.7355C21.0536 12.7355 21.2642 12.9461 21.2642 13.2058Z" fill="white"/>
</svg>
