<svg width="34" height="34" viewBox="0 0 34 34" fill="none" xmlns="http://www.w3.org/2000/svg">
<circle cx="17" cy="17" r="17" fill="black" fill-opacity="0.18"/>
<path d="M24 12.8484C23.4847 13.067 22.9318 13.2153 22.3509 13.2815C22.9441 12.9414 23.3981 12.4019 23.6133 11.7611C23.0569 12.0761 22.4428 12.3048 21.7884 12.4287C21.2644 11.8935 20.519 11.5601 19.6923 11.5601C18.1062 11.5601 16.8202 12.7914 16.8202 14.3093C16.8202 14.5246 16.8456 14.7348 16.8946 14.9359C14.508 14.8211 12.3918 13.7263 10.9754 12.0626C10.7278 12.4681 10.587 12.9405 10.587 13.4448C10.587 14.3989 11.0944 15.2408 11.8643 15.7333C11.3936 15.7182 10.9509 15.5943 10.5634 15.3882V15.4225C10.5634 16.7544 11.5537 17.866 12.8668 18.119C12.6262 18.181 12.3725 18.2153 12.1101 18.2153C11.9246 18.2153 11.7453 18.1978 11.5694 18.1642C11.9351 19.2574 12.9954 20.0523 14.2517 20.0741C13.2693 20.8113 12.0305 21.2494 10.685 21.2494C10.4532 21.2494 10.2248 21.236 10 21.2117C11.2711 21.9933 12.7802 22.4489 14.4022 22.4489C19.6853 22.4489 22.5732 18.2589 22.5732 14.6251L22.5635 14.2691C23.1278 13.8837 23.6159 13.3996 24 12.8484Z" fill="white"/>
</svg>
